<mxfile host="65bd71144e">
    <diagram id="WRAcnl6ls6ZVSaFlKYov" name="Page-1">
        <mxGraphModel dx="769" dy="468" grid="1" gridSize="10" guides="1" tooltips="1" connect="1" arrows="1" fold="1" page="1" pageScale="1" pageWidth="850" pageHeight="1100" math="0" shadow="0">
            <root>
                <mxCell id="0"/>
                <mxCell id="1" parent="0"/>
                <mxCell id="O4n7zFGMN8FsLAFbmOrS-136" value="Elementos" style="swimlane;fontStyle=1;align=center;verticalAlign=top;childLayout=stackLayout;horizontal=1;startSize=26;horizontalStack=0;resizeParent=1;resizeParentMax=0;resizeLast=0;collapsible=1;marginBottom=0;" parent="1" vertex="1">
                    <mxGeometry x="230" y="81" width="170" height="250" as="geometry">
                        <mxRectangle x="270" y="81" width="90" height="26" as="alternateBounds"/>
                    </mxGeometry>
                </mxCell>
                <mxCell id="O4n7zFGMN8FsLAFbmOrS-137" value="elNombre PK" style="text;strokeColor=none;fillColor=none;align=left;verticalAlign=top;spacingLeft=4;spacingRight=4;overflow=hidden;rotatable=0;points=[[0,0.5],[1,0.5]];portConstraint=eastwest;" parent="O4n7zFGMN8FsLAFbmOrS-136" vertex="1">
                    <mxGeometry y="26" width="170" height="26" as="geometry"/>
                </mxCell>
                <mxCell id="O4n7zFGMN8FsLAFbmOrS-138" value="" style="line;strokeWidth=1;fillColor=none;align=left;verticalAlign=middle;spacingTop=-1;spacingLeft=3;spacingRight=3;rotatable=0;labelPosition=right;points=[];portConstraint=eastwest;" parent="O4n7zFGMN8FsLAFbmOrS-136" vertex="1">
                    <mxGeometry y="52" width="170" height="8" as="geometry"/>
                </mxCell>
                <mxCell id="O4n7zFGMN8FsLAFbmOrS-143" value="elCaId FK" style="text;strokeColor=none;fillColor=none;align=left;verticalAlign=top;spacingLeft=4;spacingRight=4;overflow=hidden;rotatable=0;points=[[0,0.5],[1,0.5]];portConstraint=eastwest;" parent="O4n7zFGMN8FsLAFbmOrS-136" vertex="1">
                    <mxGeometry y="60" width="170" height="26" as="geometry"/>
                </mxCell>
                <mxCell id="155" value="elElemPadre FK N" style="text;strokeColor=none;fillColor=none;align=left;verticalAlign=top;spacingLeft=4;spacingRight=4;overflow=hidden;rotatable=0;points=[[0,0.5],[1,0.5]];portConstraint=eastwest;" parent="O4n7zFGMN8FsLAFbmOrS-136" vertex="1">
                    <mxGeometry y="86" width="170" height="26" as="geometry"/>
                </mxCell>
                <mxCell id="159" value="elPropietario FK N" style="text;strokeColor=none;fillColor=none;align=left;verticalAlign=top;spacingLeft=4;spacingRight=4;overflow=hidden;rotatable=0;points=[[0,0.5],[1,0.5]];portConstraint=eastwest;" parent="O4n7zFGMN8FsLAFbmOrS-136" vertex="1">
                    <mxGeometry y="112" width="170" height="26" as="geometry"/>
                </mxCell>
                <mxCell id="151" value="" style="line;strokeWidth=1;fillColor=none;align=left;verticalAlign=middle;spacingTop=-1;spacingLeft=3;spacingRight=3;rotatable=0;labelPosition=right;points=[];portConstraint=eastwest;" parent="O4n7zFGMN8FsLAFbmOrS-136" vertex="1">
                    <mxGeometry y="138" width="170" height="8" as="geometry"/>
                </mxCell>
                <mxCell id="O4n7zFGMN8FsLAFbmOrS-141" value="elTamanio" style="text;strokeColor=none;fillColor=none;align=left;verticalAlign=top;spacingLeft=4;spacingRight=4;overflow=hidden;rotatable=0;points=[[0,0.5],[1,0.5]];portConstraint=eastwest;" parent="O4n7zFGMN8FsLAFbmOrS-136" vertex="1">
                    <mxGeometry y="146" width="170" height="26" as="geometry"/>
                </mxCell>
                <mxCell id="O4n7zFGMN8FsLAFbmOrS-140" value="elTipo" style="text;strokeColor=none;fillColor=none;align=left;verticalAlign=top;spacingLeft=4;spacingRight=4;overflow=hidden;rotatable=0;points=[[0,0.5],[1,0.5]];portConstraint=eastwest;" parent="O4n7zFGMN8FsLAFbmOrS-136" vertex="1">
                    <mxGeometry y="172" width="170" height="26" as="geometry"/>
                </mxCell>
                <mxCell id="O4n7zFGMN8FsLAFbmOrS-142" value="elFechaModificacion" style="text;strokeColor=none;fillColor=none;align=left;verticalAlign=top;spacingLeft=4;spacingRight=4;overflow=hidden;rotatable=0;points=[[0,0.5],[1,0.5]];portConstraint=eastwest;" parent="O4n7zFGMN8FsLAFbmOrS-136" vertex="1">
                    <mxGeometry y="198" width="170" height="26" as="geometry"/>
                </mxCell>
                <mxCell id="O4n7zFGMN8FsLAFbmOrS-139" value="elFechaCreacion" style="text;strokeColor=none;fillColor=none;align=left;verticalAlign=top;spacingLeft=4;spacingRight=4;overflow=hidden;rotatable=0;points=[[0,0.5],[1,0.5]];portConstraint=eastwest;" parent="O4n7zFGMN8FsLAFbmOrS-136" vertex="1">
                    <mxGeometry y="224" width="170" height="26" as="geometry"/>
                </mxCell>
                <mxCell id="O4n7zFGMN8FsLAFbmOrS-145" value="Usuarios" style="swimlane;fontStyle=1;align=center;verticalAlign=top;childLayout=stackLayout;horizontal=1;startSize=26;horizontalStack=0;resizeParent=1;resizeParentMax=0;resizeLast=0;collapsible=1;marginBottom=0;" parent="1" vertex="1">
                    <mxGeometry x="40" y="390" width="130" height="138" as="geometry"/>
                </mxCell>
                <mxCell id="O4n7zFGMN8FsLAFbmOrS-146" value="usMail PK" style="text;strokeColor=none;fillColor=none;align=left;verticalAlign=top;spacingLeft=4;spacingRight=4;overflow=hidden;rotatable=0;points=[[0,0.5],[1,0.5]];portConstraint=eastwest;" parent="O4n7zFGMN8FsLAFbmOrS-145" vertex="1">
                    <mxGeometry y="26" width="130" height="26" as="geometry"/>
                </mxCell>
                <mxCell id="O4n7zFGMN8FsLAFbmOrS-147" value="" style="line;strokeWidth=1;fillColor=none;align=left;verticalAlign=middle;spacingTop=-1;spacingLeft=3;spacingRight=3;rotatable=0;labelPosition=right;points=[];portConstraint=eastwest;" parent="O4n7zFGMN8FsLAFbmOrS-145" vertex="1">
                    <mxGeometry y="52" width="130" height="8" as="geometry"/>
                </mxCell>
                <mxCell id="O4n7zFGMN8FsLAFbmOrS-148" value="usNombreÂ " style="text;strokeColor=none;fillColor=none;align=left;verticalAlign=top;spacingLeft=4;spacingRight=4;overflow=hidden;rotatable=0;points=[[0,0.5],[1,0.5]];portConstraint=eastwest;" parent="O4n7zFGMN8FsLAFbmOrS-145" vertex="1">
                    <mxGeometry y="60" width="130" height="26" as="geometry"/>
                </mxCell>
                <mxCell id="O4n7zFGMN8FsLAFbmOrS-150" value="usPuntaje" style="text;strokeColor=none;fillColor=none;align=left;verticalAlign=top;spacingLeft=4;spacingRight=4;overflow=hidden;rotatable=0;points=[[0,0.5],[1,0.5]];portConstraint=eastwest;" parent="O4n7zFGMN8FsLAFbmOrS-145" vertex="1">
                    <mxGeometry y="86" width="130" height="26" as="geometry"/>
                </mxCell>
                <mxCell id="O4n7zFGMN8FsLAFbmOrS-149" value="usEsAdmin" style="text;strokeColor=none;fillColor=none;align=left;verticalAlign=top;spacingLeft=4;spacingRight=4;overflow=hidden;rotatable=0;points=[[0,0.5],[1,0.5]];portConstraint=eastwest;" parent="O4n7zFGMN8FsLAFbmOrS-145" vertex="1">
                    <mxGeometry y="112" width="130" height="26" as="geometry"/>
                </mxCell>
                <mxCell id="O4n7zFGMN8FsLAFbmOrS-151" value="Comentarios" style="swimlane;fontStyle=1;align=center;verticalAlign=top;childLayout=stackLayout;horizontal=1;startSize=26;horizontalStack=0;resizeParent=1;resizeParentMax=0;resizeLast=0;collapsible=1;marginBottom=0;" parent="1" vertex="1">
                    <mxGeometry x="460" y="386" width="130" height="146" as="geometry"/>
                </mxCell>
                <mxCell id="O4n7zFGMN8FsLAFbmOrS-152" value="coId PK" style="text;strokeColor=none;fillColor=none;align=left;verticalAlign=top;spacingLeft=4;spacingRight=4;overflow=hidden;rotatable=0;points=[[0,0.5],[1,0.5]];portConstraint=eastwest;" parent="O4n7zFGMN8FsLAFbmOrS-151" vertex="1">
                    <mxGeometry y="26" width="130" height="26" as="geometry"/>
                </mxCell>
                <mxCell id="O4n7zFGMN8FsLAFbmOrS-153" value="" style="line;strokeWidth=1;fillColor=none;align=left;verticalAlign=middle;spacingTop=-1;spacingLeft=3;spacingRight=3;rotatable=0;labelPosition=right;points=[];portConstraint=eastwest;" parent="O4n7zFGMN8FsLAFbmOrS-151" vertex="1">
                    <mxGeometry y="52" width="130" height="8" as="geometry"/>
                </mxCell>
                <mxCell id="156" value="coIdElemento FK" style="text;strokeColor=none;fillColor=none;align=left;verticalAlign=top;spacingLeft=4;spacingRight=4;overflow=hidden;rotatable=0;points=[[0,0.5],[1,0.5]];portConstraint=eastwest;" parent="O4n7zFGMN8FsLAFbmOrS-151" vertex="1">
                    <mxGeometry y="60" width="130" height="26" as="geometry"/>
                </mxCell>
                <mxCell id="O4n7zFGMN8FsLAFbmOrS-155" value="coAutor FK" style="text;strokeColor=none;fillColor=none;align=left;verticalAlign=top;spacingLeft=4;spacingRight=4;overflow=hidden;rotatable=0;points=[[0,0.5],[1,0.5]];portConstraint=eastwest;" parent="O4n7zFGMN8FsLAFbmOrS-151" vertex="1">
                    <mxGeometry y="86" width="130" height="26" as="geometry"/>
                </mxCell>
                <mxCell id="157" value="" style="line;strokeWidth=1;fillColor=none;align=left;verticalAlign=middle;spacingTop=-1;spacingLeft=3;spacingRight=3;rotatable=0;labelPosition=right;points=[];portConstraint=eastwest;" parent="O4n7zFGMN8FsLAFbmOrS-151" vertex="1">
                    <mxGeometry y="112" width="130" height="8" as="geometry"/>
                </mxCell>
                <mxCell id="O4n7zFGMN8FsLAFbmOrS-154" value="coDescripcion" style="text;strokeColor=none;fillColor=none;align=left;verticalAlign=top;spacingLeft=4;spacingRight=4;overflow=hidden;rotatable=0;points=[[0,0.5],[1,0.5]];portConstraint=eastwest;" parent="O4n7zFGMN8FsLAFbmOrS-151" vertex="1">
                    <mxGeometry y="120" width="130" height="26" as="geometry"/>
                </mxCell>
                <mxCell id="O4n7zFGMN8FsLAFbmOrS-157" value="Catedras" style="swimlane;fontStyle=1;align=center;verticalAlign=top;childLayout=stackLayout;horizontal=1;startSize=26;horizontalStack=0;resizeParent=1;resizeParentMax=0;resizeLast=0;collapsible=1;marginBottom=0;" parent="1" vertex="1">
                    <mxGeometry x="465" y="163" width="120" height="86" as="geometry"/>
                </mxCell>
                <mxCell id="O4n7zFGMN8FsLAFbmOrS-158" value="caId PK" style="text;strokeColor=none;fillColor=none;align=left;verticalAlign=top;spacingLeft=4;spacingRight=4;overflow=hidden;rotatable=0;points=[[0,0.5],[1,0.5]];portConstraint=eastwest;" parent="O4n7zFGMN8FsLAFbmOrS-157" vertex="1">
                    <mxGeometry y="26" width="120" height="26" as="geometry"/>
                </mxCell>
                <mxCell id="O4n7zFGMN8FsLAFbmOrS-159" value="" style="line;strokeWidth=1;fillColor=none;align=left;verticalAlign=middle;spacingTop=-1;spacingLeft=3;spacingRight=3;rotatable=0;labelPosition=right;points=[];portConstraint=eastwest;" parent="O4n7zFGMN8FsLAFbmOrS-157" vertex="1">
                    <mxGeometry y="52" width="120" height="8" as="geometry"/>
                </mxCell>
                <mxCell id="177" value="caUrlÂ N" style="text;strokeColor=none;fillColor=none;align=left;verticalAlign=top;spacingLeft=4;spacingRight=4;overflow=hidden;rotatable=0;points=[[0,0.5],[1,0.5]];portConstraint=eastwest;" parent="O4n7zFGMN8FsLAFbmOrS-157" vertex="1">
                    <mxGeometry y="60" width="120" height="26" as="geometry"/>
                </mxCell>
                <mxCell id="O4n7zFGMN8FsLAFbmOrS-168" value="caId es directamente el String nombre" style="shape=note2;boundedLbl=1;whiteSpace=wrap;html=1;size=9;verticalAlign=top;align=center;" parent="1" vertex="1">
                    <mxGeometry x="700" y="81" width="120" height="59" as="geometry"/>
                </mxCell>
                <mxCell id="O4n7zFGMN8FsLAFbmOrS-169" value="Si borro un elemento(es decir carpeta o archivo), la catedra no deberia ser afectada&lt;br&gt;Los comentarios hacia dicho elemento deberian ser eliminados&lt;br&gt;&lt;br&gt;Cuando elimino un usuario, debo eliminar todos los comentarios que realizo. Los elementos que aporto deberia tener un propietario desconocido&lt;br&gt;&lt;br&gt;" style="shape=note;whiteSpace=wrap;html=1;backgroundOutline=1;darkOpacity=0.05;size=0;" parent="1" vertex="1">
                    <mxGeometry x="680" y="310" width="250" height="170" as="geometry"/>
                </mxCell>
                <mxCell id="168" value="" style="edgeStyle=entityRelationEdgeStyle;fontSize=12;html=1;endArrow=ERzeroToMany;startArrow=ERmandOne;" parent="1" source="O4n7zFGMN8FsLAFbmOrS-145" target="O4n7zFGMN8FsLAFbmOrS-151" edge="1">
                    <mxGeometry width="100" height="100" relative="1" as="geometry">
                        <mxPoint x="190" y="703" as="sourcePoint"/>
                        <mxPoint x="300" y="450" as="targetPoint"/>
                    </mxGeometry>
                </mxCell>
                <mxCell id="173" value="" style="edgeStyle=entityRelationEdgeStyle;fontSize=12;html=1;endArrow=ERzeroToMany;startArrow=ERmandOne;exitX=1;exitY=0.5;exitDx=0;exitDy=0;" parent="1" source="O4n7zFGMN8FsLAFbmOrS-140" target="O4n7zFGMN8FsLAFbmOrS-152" edge="1">
                    <mxGeometry width="100" height="100" relative="1" as="geometry">
                        <mxPoint x="170.91000000000008" y="414.62800000000004" as="sourcePoint"/>
                        <mxPoint x="530" y="350" as="targetPoint"/>
                    </mxGeometry>
                </mxCell>
                <mxCell id="175" value="" style="edgeStyle=entityRelationEdgeStyle;fontSize=12;html=1;endArrow=ERzeroToMany;startArrow=ERzeroToOne;" parent="1" source="O4n7zFGMN8FsLAFbmOrS-146" target="O4n7zFGMN8FsLAFbmOrS-136" edge="1">
                    <mxGeometry width="100" height="100" relative="1" as="geometry">
                        <mxPoint x="80" y="350" as="sourcePoint"/>
                        <mxPoint x="180" y="250" as="targetPoint"/>
                    </mxGeometry>
                </mxCell>
                <mxCell id="176" value="" style="edgeStyle=entityRelationEdgeStyle;fontSize=12;html=1;endArrow=ERzeroToMany;startArrow=ERzeroToOne;" parent="1" source="O4n7zFGMN8FsLAFbmOrS-136" target="O4n7zFGMN8FsLAFbmOrS-157" edge="1">
                    <mxGeometry width="100" height="100" relative="1" as="geometry">
                        <mxPoint x="450" y="303" as="sourcePoint"/>
                        <mxPoint x="560" y="80" as="targetPoint"/>
                    </mxGeometry>
                </mxCell>
            </root>
        </mxGraphModel>
    </diagram>
</mxfile>